HIERARCHY
ROOT joint_Root
{
	OFFSET 0.0 0.0 0.0
	CHANNELS 6 Xposition Yposition Zposition Zrotation Xrotation Yrotation 
	JOINT Hips
	{
		OFFSET 4.5925 91.4895 -427.239
		CHANNELS 6 Xposition Yposition Zposition Zrotation Xrotation Yrotation 
		JOINT Spine
		{
			OFFSET 15.7357 0.0 0.0
			CHANNELS 6 Xposition Yposition Zposition Zrotation Xrotation Yrotation 
			JOINT Chest
			{
				OFFSET 8.98455 -0.406207 0.0
				CHANNELS 6 Xposition Yposition Zposition Zrotation Xrotation Yrotation 
				JOINT Neck
				{
					OFFSET 16.3773 0.0 0.0
					CHANNELS 6 Xposition Yposition Zposition Zrotation Xrotation Yrotation 
					JOINT Head
					{
						OFFSET 6.45672 0.0 0.0
						CHANNELS 6 Xposition Yposition Zposition Zrotation Xrotation Yrotation 
						End Site
						{
							OFFSET 0.0 0.0 0.0
						}
					}
				}
				JOINT Shoulder_L
				{
					OFFSET 12.9942 -0.242716 4.98039
					CHANNELS 6 Xposition Yposition Zposition Zrotation Xrotation Yrotation 
					JOINT UpperArm_L
					{
						OFFSET 5.34809 0.0 0.0
						CHANNELS 6 Xposition Yposition Zposition Zrotation Xrotation Yrotation 
						JOINT LowerArm_L
						{
							OFFSET 24.3286 1.87007e-05 0.0
							CHANNELS 6 Xposition Yposition Zposition Zrotation Xrotation Yrotation 
							JOINT Hand_L
							{
								OFFSET 22.2916 0.0 0.0
								CHANNELS 6 Xposition Yposition Zposition Zrotation Xrotation Yrotation 
								End Site
								{
									OFFSET 0.0 0.0 0.0
								}
							}
						}
					}
				}
				JOINT Shoulder_R
				{
					OFFSET 12.9945 -0.242716 -4.98039
					CHANNELS 6 Xposition Yposition Zposition Zrotation Xrotation Yrotation 
					JOINT UpperArm_R
					{
						OFFSET -5.34813 0.0 0.0
						CHANNELS 6 Xposition Yposition Zposition Zrotation Xrotation Yrotation 
						JOINT LowerArm_R
						{
							OFFSET -24.3289 0.000322201 0.0
							CHANNELS 6 Xposition Yposition Zposition Zrotation Xrotation Yrotation 
							JOINT Hand_R
							{
								OFFSET -22.2915 -0.000108084 0.0
								CHANNELS 6 Xposition Yposition Zposition Zrotation Xrotation Yrotation 
								End Site
								{
									OFFSET 0.0 0.0 0.0
								}
							}
						}
					}
				}
			}
		}
		JOINT UpperLeg_L
		{
			OFFSET -2.19248 -6.46944 0.0
			CHANNELS 6 Xposition Yposition Zposition Zrotation Xrotation Yrotation 
			JOINT LowerLeg_L
			{
				OFFSET 39.0811 0.0 -1.23785e-05
				CHANNELS 6 Xposition Yposition Zposition Zrotation Xrotation Yrotation 
				JOINT Foot_L
				{
					OFFSET 40.9854 0.0 -1.26872e-05
					CHANNELS 6 Xposition Yposition Zposition Zrotation Xrotation Yrotation 
					JOINT Toes_L
					{
						OFFSET 11.7543 0.0 0.0
						CHANNELS 6 Xposition Yposition Zposition Zrotation Xrotation Yrotation 
						End Site
						{
							OFFSET 0.0 0.0 0.0
						}
					}
				}
			}
		}
		JOINT UpperLeg_R
		{
			OFFSET -2.19251 6.46944 0.0
			CHANNELS 6 Xposition Yposition Zposition Zrotation Xrotation Yrotation 
			JOINT LowerLeg_R
			{
				OFFSET -39.0811 -0.00228153 -0.0401928
				CHANNELS 6 Xposition Yposition Zposition Zrotation Xrotation Yrotation 
				JOINT Foot_R
				{
					OFFSET -40.9854 0.0 0.0
					CHANNELS 6 Xposition Yposition Zposition Zrotation Xrotation Yrotation 
					JOINT Toes_R
					{
						OFFSET -11.7543 0.0 0.0
						CHANNELS 6 Xposition Yposition Zposition Zrotation Xrotation Yrotation 
						End Site
						{
							OFFSET 0.0 0.0 0.0
						}
					}
				}
			}
		}
	}
}
MOTION
Frames:	6
Frame Time:	0.0333333
0.000000 0.000000 0.000000 0.000000 0.000000 -0.000000 -1.128290 82.902400 0.147538 90.630200 3.412920 11.451800 15.735700 0.000005 -0.000001 101.181000 79.956000 -102.214000 8.984550 -0.406207 -0.000000 11.995700 3.823340 -2.467220 16.377300 -0.000001 -0.000001 -3.131940 -9.692060 2.223110 6.456720 -0.000001 -0.000000 -6.638880 -15.708200 5.329400 12.994200 -0.242716 4.980390 -92.702700 6.488280 -67.327000 5.348090 -0.000007 -0.000001 -67.752500 7.804510 4.382640 24.328600 0.000019 0.000005 3.046220 6.301580 -25.886200 22.291600 -0.000001 0.000005 16.118300 4.984020 7.672420 12.994500 -0.242716 -4.980390 88.670200 7.990210 -80.519000 -5.348130 -0.000001 -0.000004 -62.221100 26.921000 -9.597200 -24.328900 0.000322 -0.000009 -0.903279 -2.088680 -23.367000 -22.291500 -0.000108 -0.000004 16.394100 5.425530 -3.785840 -2.192480 -6.469440 -0.000000 -173.905000 -15.031200 -13.600700 39.081100 -0.000007 -0.000012 -0.119724 0.069546 59.850000 40.985400 -0.000006 -0.000013 6.100360 13.440100 -85.051600 11.754300 -0.000000 0.000003 -0.000025 -0.000304 -16.589400 -2.192510 6.469440 -0.000001 175.719000 14.199700 166.560000 -39.081100 -0.002282 -0.040193 0.109663 -0.058960 61.023300 -40.985400 0.000008 0.000006 4.896390 -0.831671 -84.761400 -11.754300 -0.000006 -0.000006 -0.909837 -1.119380 -17.248000
0.000000 0.000000 0.000000 0.000000 0.000000 -0.000000 -0.435503 84.460400 0.169976 90.910900 0.001257 10.284200 15.735700 0.000005 -0.000001 100.355000 80.697200 -100.899000 8.984550 -0.406207 -0.000000 10.565500 3.307760 -1.394740 16.377300 -0.000001 -0.000001 -3.298660 -8.660500 2.500610 6.456720 -0.000001 -0.000000 -5.798690 -13.360900 3.990430 12.994200 -0.242716 4.980390 -92.279800 5.355170 -66.896200 5.348090 -0.000007 -0.000001 -69.347500 3.564340 8.569520 24.328600 0.000019 0.000005 2.051630 4.738080 -23.440700 22.291600 -0.000001 0.000005 14.513200 4.940890 8.548740 12.994500 -0.242716 -4.980390 88.660300 7.788540 -80.208600 -5.348130 -0.000001 -0.000004 -61.622200 27.082000 -11.893900 -24.328900 0.000322 -0.000009 -0.569360 -1.416880 -21.854900 -22.291500 -0.000108 -0.000004 16.032000 5.421570 -3.651460 -2.192480 -6.469440 -0.000000 -174.855000 -16.744600 -11.950800 39.081100 -0.000007 -0.000012 -0.126766 0.088397 55.112200 40.985400 -0.000006 -0.000013 5.194410 11.753500 -82.895000 11.754300 -0.000000 0.000003 -0.000025 -0.000305 -16.589500 -2.192510 6.469440 -0.000001 175.488000 12.216900 166.942000 -39.081100 -0.002282 -0.040193 0.083235 -0.052431 56.765300 -40.985400 0.000008 0.000006 5.014970 1.055500 -82.202200 -11.754300 -0.000006 -0.000006 -0.914632 -1.124330 -17.305600
0.000000 0.000000 0.000000 0.000000 0.000000 -0.000000 0.127941 86.561700 0.276428 91.144200 -3.074080 8.768650 15.735700 0.000005 -0.000001 101.241000 81.695400 -101.079000 8.984550 -0.406207 -0.000000 8.529940 3.223430 0.084062 16.377300 -0.000001 -0.000001 -2.278520 -7.513860 1.862970 6.456720 -0.000001 -0.000000 -5.466420 -11.671400 1.813570 12.994200 -0.242716 4.980390 -91.621800 3.604030 -65.750000 5.348090 -0.000007 -0.000001 -65.552000 -2.233880 7.341900 24.328600 0.000019 0.000005 3.950030 9.305660 -23.122700 22.291600 -0.000001 0.000005 10.113600 4.949130 8.386490 12.994500 -0.242716 -4.980390 88.618500 7.427890 -79.432400 -5.348130 -0.000001 -0.000004 -61.922600 26.226300 -11.607800 -24.328900 0.000322 -0.000009 -0.037296 -0.085419 -23.092800 -22.291500 -0.000108 -0.000004 16.040800 5.421010 -3.632480 -2.192480 -6.469440 -0.000000 -175.759000 -18.590200 -9.623640 39.081100 -0.000007 -0.000012 -0.130455 0.117141 48.079000 40.985400 -0.000006 -0.000013 4.336560 10.682000 -79.600100 11.754300 -0.000000 0.000003 -0.000026 -0.000317 -16.589900 -2.192510 6.469440 -0.000001 175.077000 11.720100 168.121000 -39.081100 -0.002282 -0.040193 0.060763 -0.047561 50.412600 -40.985400 0.000008 0.000006 5.560690 3.960070 -78.624200 -11.754300 -0.000006 -0.000006 -0.713420 -0.871842 -17.701800
0.000000 0.000000 0.000000 0.000000 0.000000 -0.000000 0.389573 88.571700 0.285259 91.055200 -5.085540 6.717240 15.735700 0.000005 -0.000001 103.310000 83.012000 -102.336000 8.984550 -0.406207 -0.000000 5.815110 3.192850 1.783850 16.377300 -0.000001 -0.000001 -0.334083 -6.679430 1.097710 6.456720 -0.000001 -0.000000 -4.782800 -10.021000 -1.738880 12.994200 -0.242716 4.980390 -90.932300 2.030670 -65.332700 5.348090 -0.000007 -0.000001 -57.284000 -14.031400 1.794930 24.328600 0.000019 0.000005 4.167200 9.061850 -24.841200 22.291600 -0.000001 0.000005 10.414400 4.905200 9.271340 12.994500 -0.242716 -4.980390 88.666800 6.766770 -78.826900 -5.348130 -0.000001 -0.000004 -62.867000 25.368200 -9.465330 -24.328900 0.000322 -0.000009 -0.311025 -0.645759 -25.616100 -22.291500 -0.000108 -0.000004 16.058000 5.438140 -4.220950 -2.192480 -6.469440 -0.000000 -176.443000 -19.986200 -7.844310 39.081100 -0.000007 -0.000012 -0.113471 0.132838 40.504800 40.985400 -0.000006 -0.000013 3.594920 10.305100 -75.857800 11.754300 -0.000000 0.000003 -0.000016 -0.000210 -16.585800 -2.192510 6.469440 -0.000001 175.199000 12.365000 169.185000 -39.081100 -0.002282 -0.040193 0.042960 -0.041970 43.401500 -40.985400 0.000008 0.000006 5.746600 6.822010 -74.725700 -11.754300 -0.000006 -0.000006 -0.505544 -0.621933 -18.126200
0.000000 0.000000 0.000000 0.000000 0.000000 -0.000000 0.338517 90.009700 0.252489 90.798100 -5.957190 5.230540 15.735700 0.000005 -0.000001 104.273000 84.079600 -102.727000 8.984550 -0.406207 -0.000000 3.676410 2.860190 2.997090 16.377300 -0.000001 -0.000001 1.740270 -5.885410 0.633603 6.456720 -0.000001 -0.000000 -4.049170 -8.633700 -4.474850 12.994200 -0.242716 4.980390 -90.266000 0.584484 -65.535500 5.348090 -0.000007 -0.000001 -48.023700 -26.244700 -7.668170 24.328600 0.000019 0.000005 1.628760 2.899020 -29.389600 22.291600 -0.000001 0.000005 15.166700 4.960170 8.174740 12.994500 -0.242716 -4.980390 88.695100 6.239640 -78.163400 -5.348130 -0.000001 -0.000004 -63.305400 25.504900 -8.071800 -24.328900 0.000322 -0.000009 -0.856747 -1.671380 -27.114200 -22.291500 -0.000108 -0.000004 15.183000 5.456920 -4.891160 -2.192480 -6.469440 -0.000000 -176.741000 -20.081300 -6.253370 39.081100 -0.000007 -0.000012 -0.100331 0.147437 34.235600 40.985400 -0.000006 -0.000013 2.795490 9.899750 -72.655300 11.754300 -0.000000 0.000003 -0.000013 -0.000168 -16.584100 -2.192510 6.469440 -0.000001 175.545000 13.962800 170.768000 -39.081100 -0.002282 -0.040193 0.029602 -0.034765 37.125100 -40.985400 0.000008 0.000006 5.671690 9.285190 -71.962000 -11.754300 -0.000006 -0.000006 -0.002961 -0.040157 -18.206200
0.000000 0.000000 0.000000 0.000000 0.000000 -0.000000 0.015431 90.751200 0.184453 90.339100 -5.387960 4.917820 15.735700 0.000005 -0.000001 101.910000 84.601100 -100.073000 8.984550 -0.406207 -0.000000 2.769390 2.146270 3.617260 16.377300 -0.000001 -0.000001 3.238930 -5.890240 0.603797 6.456720 -0.000001 -0.000000 -3.450440 -7.912920 -5.484390 12.994200 -0.242716 4.980390 -89.523800 -1.119660 -66.936400 5.348090 -0.000007 -0.000001 -39.914800 -37.756600 -20.334200 24.328600 0.000019 0.000005 1.829270 2.453260 -36.739100 22.291600 -0.000001 0.000005 18.263000 5.113760 4.824930 12.994500 -0.242716 -4.980390 88.633300 6.158900 -77.462600 -5.348130 -0.000001 -0.000004 -62.630600 26.261500 -7.740960 -24.328900 0.000322 -0.000009 -0.969958 -1.844850 -27.714200 -22.291500 -0.000108 -0.000004 14.455300 5.454240 -4.791130 -2.192480 -6.469440 -0.000000 -176.639000 -17.279700 -5.044120 39.081100 -0.000007 -0.000012 -0.107823 0.181221 30.752200 40.985400 -0.000006 -0.000013 1.752240 8.150020 -70.681900 11.754300 -0.000000 0.000003 -0.000016 -0.000205 -16.585600 -2.192510 6.469440 -0.000001 175.928000 16.583300 173.073000 -39.081100 -0.002282 -0.040193 0.022927 -0.030667 32.623900 -40.985400 0.000008 0.000006 6.188610 11.109700 -71.083800 -11.754300 -0.000006 -0.000006 -0.003616 -0.047388 -18.500500
